<?xml version="1.0" standalone="no"?><!DOCTYPE svg PUBLIC "-//W3C//DTD SVG 1.1//EN" "http://www.w3.org/Graphics/SVG/1.1/DTD/svg11.dtd"><svg t="1555858952598" class="icon" style="" viewBox="0 0 1024 1024" version="1.1" xmlns="http://www.w3.org/2000/svg" p-id="1011" xmlns:xlink="http://www.w3.org/1999/xlink" width="200" height="200"><defs><style type="text/css"></style></defs><path d="M970.752 333.824c-10.24 4.096-16.384 14.336-12.288 26.624 16.384 49.152 24.576 100.352 24.576 151.552 0 260.096-210.944 471.04-471.04 471.04S40.96 772.096 40.96 512 251.904 40.96 512 40.96c12.288 0 20.48-8.192 20.48-20.48s-8.192-20.48-20.48-20.48C229.376 0 0 229.376 0 512s229.376 512 512 512 512-229.376 512-512c0-57.344-8.192-112.64-26.624-163.84-4.096-12.288-16.384-16.384-26.624-14.336z" fill="#2c2c2c" p-id="1012"></path><path d="M811.008 325.632c8.192 8.192 20.48 8.192 28.672 0 8.192-8.192 8.192-20.48 0-28.672l-110.592-110.592H1003.52c10.24 0 20.48-8.192 20.48-20.48 0-10.24-10.24-20.48-20.48-20.48H731.136l110.592-110.592c8.192-8.192 8.192-20.48 0-28.672-8.192-8.192-20.48-8.192-28.672 0l-145.408 145.408c-4.096 4.096-6.144 10.24-6.144 14.336 0 6.144 2.048 10.24 6.144 14.336l143.36 145.408zM380.928 311.296c-8.192-8.192-20.48-8.192-28.672 0-8.192 8.192-8.192 20.48 0 28.672l131.072 131.072H368.64c-10.24 0-20.48 10.24-20.48 20.48s10.24 20.48 20.48 20.48h122.88v102.4h-122.88c-10.24 0-20.48 10.24-20.48 20.48s10.24 20.48 20.48 20.48h122.88v143.36c0 10.24 10.24 20.48 20.48 20.48s20.48-10.24 20.48-20.48v-143.36h122.88c10.24 0 20.48-10.24 20.48-20.48s-10.24-20.48-20.48-20.48h-122.88v-102.4h122.88c10.24 0 20.48-10.24 20.48-20.48s-10.24-20.48-20.48-20.48h-112.64l131.072-131.072c8.192-8.192 8.192-20.48 0-28.672-8.192-8.192-20.48-8.192-28.672 0L512 442.368l-131.072-131.072z" fill="#2c2c2c" p-id="1013"></path></svg>