<?xml version="1.0" standalone="no"?><!DOCTYPE svg PUBLIC "-//W3C//DTD SVG 1.1//EN" "http://www.w3.org/Graphics/SVG/1.1/DTD/svg11.dtd"><svg t="1555859170892" class="icon" style="" viewBox="0 0 1024 1024" version="1.1" xmlns="http://www.w3.org/2000/svg" p-id="2972" xmlns:xlink="http://www.w3.org/1999/xlink" width="200" height="200"><defs><style type="text/css"></style></defs><path d="M381.997 515.171l0 23.944 107.447 0 0 61.316L381.997 600.431l0 23.939 107.447 0 0 94.016 37.374 0L526.818 624.37l107.444 0 0-23.939L526.817 600.431l0-61.316 107.444 0 0-23.944-94.016 0L663.46 301.448l-43.215 0L508.13 502.325 396.013 301.448l-43.214 0 123.214 213.723L381.997 515.171zM1004.354 0 116.877 0c-9.927 0-18.051 8.122-18.051 18.051l0 249.946L18.01 267.997c-9.905 0-18.01 8.104-18.01 18.01l0 0.08c0 9.904 8.105 18.01 18.01 18.01l80.815 0 0 114.318L18.01 418.415c-9.905 0-18.01 8.105-18.01 18.01l0 0.08c0 9.905 8.105 18.01 18.01 18.01l80.815 0 0 114.318L18.01 568.833c-9.905 0-18.01 8.104-18.01 18.01l0 0.081c0 9.905 8.105 18.01 18.01 18.01l80.815 0 0 114.318L18.01 719.252c-9.905 0-18.01 8.104-18.01 18.01l0 0.08c0 9.905 8.105 18.01 18.01 18.01l80.815 0 0 249.446c0 9.927 8.122 18.051 18.051 18.051l887.476 0c9.927 0 18.051-8.122 18.051-18.051L1022.403 18.053C1022.402 8.122 1014.282 0 1004.354 0zM830.619 986.753 146.961 986.753c-6.618 0-12.035-5.415-12.035-12.035L134.926 755.356l45.617 0c9.904 0 18.01-8.104 18.01-18.01l0-0.081c0-9.905-8.105-18.01-18.01-18.01l-45.617 0L134.926 604.937l45.617 0c9.904 0 18.01-8.104 18.01-18.01l0-0.08c0-9.905-8.105-18.01-18.01-18.01l-45.617 0L134.926 454.518l45.617 0c9.904 0 18.01-8.105 18.01-18.01l0-0.08c0-9.905-8.105-18.01-18.01-18.01l-45.617 0L134.926 304.098l45.617 0c9.904 0 18.01-8.104 18.01-18.01l0-0.08c0-9.905-8.105-18.01-18.01-18.01l-45.617 0 0-219.866c0-6.617 5.416-12.035 12.035-12.035l683.658 0L830.619 986.753zM986.304 974.719c0 6.618-5.414 12.035-12.035 12.035L866.718 986.754 866.718 36.101l107.551 0c6.618 0 12.035 5.416 12.035 12.035L986.304 974.719 986.304 974.719z" p-id="2973"></path></svg>