<?xml version="1.0" standalone="no"?><!DOCTYPE svg PUBLIC "-//W3C//DTD SVG 1.1//EN" "http://www.w3.org/Graphics/SVG/1.1/DTD/svg11.dtd"><svg t="1555859426730" class="icon" style="" viewBox="0 0 1025 1024" version="1.1" xmlns="http://www.w3.org/2000/svg" p-id="1748" xmlns:xlink="http://www.w3.org/1999/xlink" width="200.1953125" height="200"><defs><style type="text/css"></style></defs><path d="M512.003225 32C246.90642969 32 32.003225 246.90320469 32.003225 512S246.90642969 992 512.003225 992s479.9983875-214.90320469 479.9983875-480S777.10002125 32 512.003225 32L512.003225 32zM821.77334844 821.77012344c-40.24647375 40.24647375-87.10016906 71.83921406-139.26125063 93.90091312-53.98181719 22.83256875-111.34868531 34.41012281-170.50726031 34.41012281-59.158575 0-116.52544406-11.57755406-170.50887281-34.41012281-52.16108156-22.06169906-99.01477594-53.65443938-139.26125063-93.90091312-40.24647375-40.24647375-71.83921406-87.10016906-93.90091312-139.26286313-22.83256875-53.98181719-34.41012281-111.34868531-34.41012281-170.50726031 0-59.158575 11.57755406-116.52544406 34.41012281-170.50726031 22.06169906-52.16108156 53.65443938-99.01477594 93.90091312-139.26286313C242.48118875 161.98340281 289.33649562 130.3906625 341.49596469 108.32896344c53.98181719-22.83256875 111.34868531-34.40850938 170.50726031-34.40850938s116.52544406 11.57594156 170.50726031 34.40850938c52.16108156 22.06169906 99.01477594 53.65443938 139.26286313 93.90091312 40.24647375 40.24647375 71.83760156 87.10016906 93.90091312 139.26286313 22.83256875 53.98181719 34.40850938 111.34868531 34.40850938 170.50726031 0 59.158575-11.57755406 116.52544406-34.40850938 170.50726031C893.6125625 734.66995438 862.02143562 781.52364969 821.77334844 821.77012344L821.77334844 821.77012344z" p-id="1749"></path><path d="M735.61338312 491.03977344L288.39306781 491.03977344c-11.57594156 0-20.96022656 9.38428594-20.96022656 20.96022656 0 11.57594156 9.38428594 20.96022656 20.96022656 20.96022656l447.22031438 0c11.57594156 0 20.96022656-9.38428594 20.96022656-20.96022656C756.57360969 500.42405844 747.18932375 491.03977344 735.61338312 491.03977344L735.61338312 491.03977344z" p-id="1750"></path></svg>