<?xml version="1.0" standalone="no"?><!DOCTYPE svg PUBLIC "-//W3C//DTD SVG 1.1//EN" "http://www.w3.org/Graphics/SVG/1.1/DTD/svg11.dtd"><svg t="1555859391500" class="icon" style="" viewBox="0 0 1024 1024" version="1.1" xmlns="http://www.w3.org/2000/svg" p-id="1623" xmlns:xlink="http://www.w3.org/1999/xlink" width="200" height="200"><defs><style type="text/css"></style></defs><path d="M511.21324 1.101583A36.58829 36.58829 0 0 0 474.546266 37.768557v475.175657c0 20.14323 16.366375 36.509605 36.588289 36.509605h475.175657a36.58829 36.58829 0 0 0 36.509605-36.509605A512.393422 512.393422 0 0 0 511.21324 1.101583z m16.523743 495.240203V47.210696c248.643 19.43507 429.381282 210.638389 449.13109 449.13109H527.658299z" fill="#2c2c2c" p-id="1624"></path><path d="M934.378447 695.885662a461.248502 461.248502 0 0 1-422.299678 276.969417A461.091133 461.091133 0 0 1 51.459744 512.236053a461.248502 461.248502 0 0 1 282.79207-424.896265l0.70816-0.236054c26.752728-15.343476 11.330567-55.472568-15.658214-49.020439l-6.373444 2.596588A516.170278 516.170278 0 0 0 23.526748 358.801291C15.028823 371.862917 0.157454 440.397111 0.157454 512.236053c0 141.396035 57.360996 269.337022 150.051329 361.948671a510.662364 510.662364 0 0 0 362.027355 149.815276c71.838943 0 140.294452-14.792685 202.297833-41.466728a496.499155 496.499155 0 0 0 159.3361-108.427232c87.339788-88.913478 110.236976-164.450592 110.236975-164.450592 7.00292-21.480867-35.329338-42.961734-49.020439-15.422161l-0.786845 1.652375z" fill="#2c2c2c" p-id="1625"></path></svg>