<?xml version="1.0" standalone="no"?><!DOCTYPE svg PUBLIC "-//W3C//DTD SVG 1.1//EN" "http://www.w3.org/Graphics/SVG/1.1/DTD/svg11.dtd"><svg t="1555859433423" class="icon" style="" viewBox="0 0 1024 1024" version="1.1" xmlns="http://www.w3.org/2000/svg" p-id="1873" xmlns:xlink="http://www.w3.org/1999/xlink" width="200" height="200"><defs><style type="text/css"></style></defs><path d="M910.43361067 125.74299093H113.45825493c-66.3235904 0-120.28380267 53.06346027-120.2838016 118.28167574V780.0321312c0 65.187632 53.96021227 118.22487787 120.2838016 118.22487787h796.97535574c66.3858496 0 120.39302933-53.03833813 120.39302826-118.22487787V244.02466667c0-65.21821547-54.00608747-118.28167573-120.39302826-118.28167574z m-796.97535574 65.4923744h796.97535574c30.27220053 0 54.90174613 23.68145707 54.90174613 52.78930134v104.478688H58.66792v-104.478688c0-29.1078432 24.57820907-52.78930027 54.79033493-52.78930134z m796.97535574 641.52490027H113.45825493c-30.21212587 0-54.79033493-23.6508736-54.79033493-52.7281344V413.99572907H965.3353568V780.0321312c0 29.07725973-24.6295456 52.72813333-54.90174613 52.7281344z" fill="" p-id="1874"></path><path d="M560.162352 623.230575h-67.580995c-11.92142 0-21.584918 9.662474-21.584918 21.583894v75.411531c0 11.922444 9.664522 21.589014 21.584918 21.589014h67.580995c11.92142 0 21.585942-9.66657 21.585942-21.589014v-75.411531c-0.001024-11.92142-9.664522-21.583894-21.585942-21.583894z m-21.584917 75.411532h-24.409113v-32.237601h24.409113v32.237601zM714.748619 623.230575h-67.523652c-11.922444 0-21.584918 9.662474-21.584917 21.583894v75.411531c0 11.922444 9.662474 21.589014 21.584917 21.589014h67.523652c11.922444 0 21.586966-9.66657 21.586965-21.589014v-75.411531c-0.001024-11.92142-9.664522-21.583894-21.586965-21.583894z m-21.584918 75.411532h-24.351768v-32.237601h24.351768v32.237601zM869.373797 623.230575h-67.544131c-11.922444 0-21.585942 9.662474-21.585942 21.583894v75.411531c0 11.922444 9.663498 21.589014 21.585942 21.589014h67.544131c11.92142 0 21.584918-9.66657 21.584918-21.589014v-75.411531c0-11.92142-9.663498-21.583894-21.584918-21.583894z m-21.585941 75.411532h-24.372249v-32.237601h24.372249v32.237601z" fill="" p-id="1875"></path></svg>