<?xml version="1.0" standalone="no"?><!DOCTYPE svg PUBLIC "-//W3C//DTD SVG 1.1//EN" "http://www.w3.org/Graphics/SVG/1.1/DTD/svg11.dtd"><svg t="1555859204758" class="icon" style="" viewBox="0 0 1147 1024" version="1.1" xmlns="http://www.w3.org/2000/svg" p-id="3096" xmlns:xlink="http://www.w3.org/1999/xlink" width="224.0234375" height="200"><defs><style type="text/css"></style></defs><path d="M527.266989 194.943623c-9.520411-6.224779-22.290131-3.553124-28.51491 5.970011l-80.608777 123.304849-78.439846-123.101852c-6.113063-9.595342-18.845999-12.416861-28.444066-6.303798-9.595342 6.114425-12.418223 18.848724-6.303798 28.444066l74.428957 116.808953L322.328843 340.065853c-11.377354 0-20.600763 9.223409-20.600763 20.600763s9.223409 20.600763 20.600763 20.600763l76.231405 0 0 59.055701L322.328843 440.323079c-11.377354 0-20.600763 9.223409-20.600763 20.600763 0 11.377354 9.223409 20.600763 20.600763 20.600763l76.231405 0 0 79.656464c0 11.377354 9.223409 20.600763 20.600763 20.600763 11.377354 0 20.600763-9.223409 20.600763-20.600763l0-79.656464 76.232767 0c11.377354 0 20.600763-9.223409 20.600763-20.600763 0-11.377354-9.223409-20.600763-20.600763-20.600763l-76.232767 0 0-59.055701 76.232767 0c11.377354 0 20.600763-9.223409 20.600763-20.600763s-9.223409-20.600763-20.600763-20.600763l-58.986219 0 76.230042-116.605957C539.463142 213.935398 536.790125 201.168402 527.266989 194.943623z" p-id="3097"></path><path d="M1074.588421 620.108704c-14.643013-34.621161-35.603447-65.710997-62.298199-92.404386-26.694752-26.694752-57.783225-47.653824-92.404386-62.296837-35.852766-15.16481-73.927596-22.8528-113.167274-22.8528s-77.315871 7.689353-113.167274 22.8528c-34.621161 14.643013-65.710997 35.603447-92.404386 62.296837s-47.653824 57.783225-62.298199 92.404386c-15.16481 35.852766-22.8528 73.927596-22.8528 113.167274 0 39.239678 7.689353 77.315871 22.854163 113.168636 14.643013 34.621161 35.603447 65.710997 62.298199 92.404386 26.694752 26.694752 57.783225 47.653824 92.404386 62.298199 35.852766 15.16481 73.927596 22.8528 113.167274 22.8528s77.315871-7.689353 113.167274-22.8528c1.149861-0.486375 2.277923-0.972749 3.401898-1.459124 14.444103-6.253389 28.523085-13.322853 41.644303-22.062612 4.737045-3.155305 9.411419-6.519056 13.77653-10.115777 7.001344-5.761565 8.049025-16.102137 2.32152-23.14844-5.749304-7.072188-16.141646-8.14303-23.213835-2.395089-3.072199 2.497269-6.283362 4.858298-9.540847 7.079-31.783294 21.657981-70.569295 34.434513-108.472463 39.664745-10.940025 1.509533-22.036726 2.286097-33.084381 2.286097-68.839054 0-133.558228-26.807831-182.23521-75.484813-48.676982-48.676982-75.484813-113.396156-75.484813-182.23521 0-68.839054 26.807831-133.558228 75.484813-182.23521 48.676982-48.676982 113.396156-75.484813 182.23521-75.484813 68.840416 0 133.558228 26.807831 182.23521 75.484813 48.676982 48.676982 75.484813 113.396156 75.484813 182.23521 0 18.599406-1.978196 36.89091-5.79835 54.651081-0.160763 0.562669-0.29564 1.138962-0.397819 1.728878-0.004087 0.025885-0.051771 0.29019-0.145776 0.772478-3.407348 15.106227-8.152567 29.817359-14.196148 43.980809-0.371934 0.87057-0.686647 1.651222-0.960488 2.366479-1.595364 3.574922-3.336503 7.237038-5.24113 10.9482-4.160752 8.10897-0.960488 18.054448 7.148482 22.216562 2.411438 1.237054 4.985 1.822883 7.520416 1.822883 5.99181 0 11.772448-3.275196 14.696146-8.971366 15.702955-30.603461 21.854165-58.072053 23.339175-65.589744 4.678462-20.83237 7.039491-42.201523 7.039491-63.927623C1097.442584 694.0363 1089.753231 655.96147 1074.588421 620.108704z" p-id="3098"></path><path d="M671.985 678.847c0 13.168 10.674 23.842 23.842 23.842h220.008c8.738 0 16.777-4.781 20.949-12.46s3.809-17.024-0.948-24.357l-54.81-84.501c-7.166-11.046-21.928-14.197-32.977-7.027-11.046 7.166-14.193 21.93-7.027 32.977l30.93 47.685h-176.126c-13.168 0-23.842 10.673-23.842 23.842z" p-id="3099"></path><path d="M941.452536 787.707713c0-13.16754-10.674359-23.841898-23.841898-23.841898L697.601686 763.865815c-8.738396 0-16.776522 4.782004-20.949536 12.460457-4.171651 7.679816-3.809254 17.024478 0.946864 24.356883l54.811843 84.501138c4.566745 7.039491 12.216589 10.870543 20.02447 10.870543 4.445492 0 8.944118-1.242504 12.952282-3.841952 11.046292-7.166193 14.193423-21.930459 7.027229-32.976751l-30.930435-47.685159 176.12351 0C930.778177 811.549612 941.452536 800.875253 941.452536 787.707713z" p-id="3100"></path><path d="M422.297241 681.612628l-119.209492 0c-13.16754 0-23.841898 10.674359-23.841898 23.841898s10.674359 23.841898 23.841898 23.841898l119.209492 0c13.16754 0 23.841898-10.674359 23.841898-23.841898S435.464781 681.612628 422.297241 681.612628z" p-id="3101"></path><path d="M668.209394 244.284091c-13.16754 0-23.841898 10.674359-23.841898 23.841898s10.674359 23.841898 23.841898 23.841898l119.209492 0c13.16754 0 23.841898-10.674359 23.841898-23.841898s-10.674359-23.841898-23.841898-23.841898L668.209394 244.284091z" p-id="3102"></path><path d="M492.787517 887.334151 381.252392 887.334151c-3.153943 0-6.196169 0.4782-9.059921 1.362394L212.743303 888.696545c-25.68658 0-46.582982-20.897765-46.582982-46.584345L166.160321 107.892083c0-25.68658 20.897765-46.584345 46.582982-46.584345l662.27208 0c25.68658 0 46.584345 20.897765 46.584345 46.584345l0 168.634429 0 111.535126 0 0 0 0c0 16.92911 13.723397 30.653869 30.653869 30.653869 15.874617 0 28.930441-12.066725 30.495832-27.528537l0.158038 0.008174 0-3.133507 0-111.535126L982.907466 107.892083c0-59.491667-48.400416-107.892083-107.892083-107.892083L212.743303 0c-59.491667 0-107.890721 48.400416-107.890721 107.892083l0 734.218755c0 59.491667 48.399054 107.892083 107.890721 107.892083l183.503599-1.362394 96.540615 0c16.930473 0 30.653869-13.723397 30.653869-30.653869S509.71799 887.334151 492.787517 887.334151z" p-id="3103"></path></svg>