<?xml version="1.0" standalone="no"?><!DOCTYPE svg PUBLIC "-//W3C//DTD SVG 1.1//EN" "http://www.w3.org/Graphics/SVG/1.1/DTD/svg11.dtd"><svg t="1555859010775" class="icon" style="" viewBox="0 0 1024 1024" version="1.1" xmlns="http://www.w3.org/2000/svg" p-id="2599" xmlns:xlink="http://www.w3.org/1999/xlink" width="200" height="200"><defs><style type="text/css"></style></defs><path d="M936.662626 209.971717H692.816162c-15.644444 0-28.315152-12.670707-28.315152-28.315151 0-15.644444 12.670707-28.315152 28.315152-28.315152h232.210101l-72.79192-72.791919c-11.119192-11.119192-11.119192-29.090909 0-40.080808 11.119192-11.119192 29.090909-11.119192 40.080809 0l120.371717 120.371717c6.981818 6.981818 9.826263 17.19596 7.49899 26.763636 2.327273 9.567677-0.517172 19.781818-7.49899 26.763637l-120.371717 120.371717c-11.119192 11.119192-29.090909 11.119192-40.080809 0-11.119192-11.119192-11.119192-29.090909 0-40.080808l84.428283-84.686869zM631.40202 43.571717c9.179798 5.30101 14.610101 15.256566 14.092929 25.858586-0.517172 10.60202-6.852525 20.040404-16.549494 24.436364-9.69697 4.39596-20.945455 3.10303-29.349495-3.490909-34.521212-8.533333-69.947475-12.929293-105.503031-12.8C253.99596 77.575758 59.280808 272.290909 59.280808 512.646465c0 240.226263 194.715152 435.070707 435.070707 435.070707 240.226263 0 435.070707-194.715152 435.070707-435.070707 0-12.670707-0.517172-25.212121-1.680808-37.882829h3.232323c-4.137374-11.765657-0.129293-24.824242 9.955556-32.193939 10.084848-7.369697 23.660606-7.369697 33.745454 0 10.084848 7.369697 14.092929 20.428283 9.955556 32.193939h0.129293c0.905051 12.541414 1.422222 25.082828 1.422222 37.882829 0 271.644444-220.185859 491.70101-491.70101 491.70101-271.644444 0-491.70101-220.185859-491.70101-491.70101S222.707071 20.816162 494.222222 20.816162c48.614141 0 95.547475 7.111111 139.89495 20.169697l-2.715152 2.585858z m34.262626 572.250505c0 13.575758-10.084848 27.022222-23.660606 27.022222h-118.432323v57.535354c0 16.937374-10.084848 27.022222-27.022222 27.022222-16.937374 0-27.022222-13.575758-27.022222-27.022222v-57.535354h-118.432324c-16.937374 0-27.022222-13.575758-27.022222-27.022222 0-16.937374 13.575758-27.022222 27.022222-27.022222h118.432324v-54.173737h-118.432324c-16.937374 0-27.022222-13.575758-27.022222-27.022223 0-16.937374 13.575758-27.022222 27.022222-27.022222h118.432324V460.282828l-135.240404-108.218182c-10.214141-10.214141-13.575758-27.022222-3.361616-37.236363 3.232323-6.335354 9.826263-10.343434 16.937373-10.214142 6.723232 0 13.575758 3.361616 20.29899 6.723233l125.155556 104.856565 121.793939-101.494949c10.214141-10.214141 27.022222-6.723232 37.236364 3.361616 10.084848 10.214141 6.723232 27.022222-3.361616 37.236364l-128.517172 104.856565v20.29899h118.432323c16.937374 0 27.022222 13.575758 27.022222 27.022222 0 16.937374-13.575758 27.022222-27.022222 27.022223h-118.432323v54.173737h118.432323c16.678788 0 26.763636 13.575758 26.763636 27.151515z m0 0" fill="#2c2c2c" p-id="2600"></path></svg>