<?xml version="1.0" standalone="no"?><!DOCTYPE svg PUBLIC "-//W3C//DTD SVG 1.1//EN" "http://www.w3.org/Graphics/SVG/1.1/DTD/svg11.dtd"><svg t="1555859361972" class="icon" style="" viewBox="0 0 1024 1024" version="1.1" xmlns="http://www.w3.org/2000/svg" p-id="1495" xmlns:xlink="http://www.w3.org/1999/xlink" width="200" height="200"><defs><style type="text/css"></style></defs><path d="M992 960 96 960c-17.7 0-32-14.3-32-32l0-896c0-17.7-14.3-32-32-32l0 0c-17.7 0-32 14.3-32 32l0 928c0 35.3 28.7 64 64 64l928 0c17.7 0 32-14.3 32-32l0 0C1024 974.3 1009.7 960 992 960z" p-id="1496"></path><path d="M225 832.4 225 832.4c-17.7 0-32-14.3-32-32L193 478.7c0-17.7 14.3-32 32-32l0 0c17.7 0 32 14.3 32 32l0 321.7C257 818.1 242.7 832.4 225 832.4z" p-id="1497"></path><path d="M417.5 832.4 417.5 832.4c-17.7 0-32-14.3-32-32L385.5 351.1c0-17.7 14.3-32 32-32l0 0c17.7 0 32 14.3 32 32l0 449.3C449.5 818.1 435.2 832.4 417.5 832.4z" p-id="1498"></path><path d="M609.5 832.4 609.5 832.4c-17.7 0-32-14.3-32-32L577.5 671.6c0-17.7 14.3-32 32-32l0 0c17.7 0 32 14.3 32 32l0 128.8C641.5 818.1 627.2 832.4 609.5 832.4z" p-id="1499"></path><path d="M801.5 832.4 801.5 832.4c-17.7 0-32-14.3-32-32L769.5 160.6c0-17.7 14.3-32 32-32l0 0c17.7 0 32 14.3 32 32l0 639.8C833.5 818.1 819.1 832.4 801.5 832.4z" p-id="1500"></path></svg>