<?xml version="1.0" standalone="no"?><!DOCTYPE svg PUBLIC "-//W3C//DTD SVG 1.1//EN" "http://www.w3.org/Graphics/SVG/1.1/DTD/svg11.dtd"><svg t="1555859072820" class="icon" style="" viewBox="0 0 1152 1024" version="1.1" xmlns="http://www.w3.org/2000/svg" p-id="2847" xmlns:xlink="http://www.w3.org/1999/xlink" width="225" height="200"><defs><style type="text/css"></style></defs><path d="M0 480h96v480H0zM160 832.416V489.728L579.36 675.2l496.544-100.768L1152 723.936 714.176 1024 160 948.64z" p-id="2848"></path><path d="M872.416 177.312h58.048l-42.688 89.824h-88.512c0-98.368-79.264-178.08-177.024-178.08a176.768 176.768 0 0 0-153.344 89.024h-97.088C408.256 74.336 506.624 0 622.24 0c115.328 0 213.504 73.984 250.176 177.312z m-499.648 181.632H310.144l46.528-91.84h88.544c0 98.368 79.232 178.112 177.024 178.112a176.768 176.768 0 0 0 153.344-89.056h97.088c-36.448 103.776-134.816 178.112-250.432 178.112-114.592 0-212.224-73.024-249.472-175.328z" p-id="2849"></path></svg>