<?xml version="1.0" standalone="no"?><!DOCTYPE svg PUBLIC "-//W3C//DTD SVG 1.1//EN" "http://www.w3.org/Graphics/SVG/1.1/DTD/svg11.dtd"><svg t="1555859040848" class="icon" style="" viewBox="0 0 1024 1024" version="1.1" xmlns="http://www.w3.org/2000/svg" p-id="2723" xmlns:xlink="http://www.w3.org/1999/xlink" width="200" height="200"><defs><style type="text/css"></style></defs><path d="M663.03886222 535.48145778c13.35068445 0 24.17322667-10.95907555 24.17322667-24.4736 0-13.51907555-10.82368-24.47587555-24.17322667-24.47587556H535.38929778l0.01024-18.56284444 121.79683555-123.29528889c9.44128-9.56074667 9.44128-25.05614222 0-34.61688889a23.97297778 23.97297778 0 0 0-34.19136 0l-111.94936888 113.33404445-111.9493689-113.33404445a23.97297778 23.97297778 0 0 0-34.19249777 0c-9.43786667 9.55960889-9.43786667 25.05500445 0 34.61688889l122.13589333 123.64003556-0.01137778 18.21696H359.07584c-13.35409778 0-24.17664 10.9568-24.17664 24.47473777 0 13.51566222 10.82368 24.47473778 24.17777778 24.47473778h127.93514667l-0.0512 82.92920889H359.07470222c-13.35409778 0-24.17664 10.95907555-24.17664 24.47473778 0 13.51907555 10.82368 24.4736 24.17777778 24.4736h127.85777778l-0.05461333 91.0848c-0.00796445 13.51907555 10.81230222 24.48156445 24.16184888 24.49066666h0.01479112c13.34613333 0 24.1664-10.94883555 24.17664-24.45994666l0.0512-91.11438222h127.75537777c13.35068445 0 24.17322667-10.9568 24.17322667-24.47473778 0-13.51566222-10.82368-24.47473778-24.17322667-24.47473778H535.31306667l0.04778666-82.92920889H663.04zM80.72078222 436.48568889C114.36942222 221.19765333 295.33297778 64.93866667 511.01127111 64.93866667c179.54360889 0 338.47751111 109.09354667 404.90439111 277.92611555 4.93795555 12.55765333 19.00088889 18.68003555 31.40380445 13.67950223 9.57781333-3.85820445 15.34293333-13.22780445 15.20867555-23.07413334 0.00341333-0.15473778 0.02389333-0.30264889 0.02389333-0.45283556V89.07093333c0-13.51452445-10.82595555-24.4736-24.17664-24.4736-13.35409778 0-24.17664 10.95907555-24.17664 24.4736v145.62190222c-33.86026667-51.56181333-77.25056-96.36522667-128.41870222-132.14378666-80.97905778-56.6272-175.99260445-86.55872-274.76878222-86.55872-115.94752 0-228.11306667 42.14897778-315.83232 118.68387556-86.78968889 75.72821333-144.40106667 180.19669333-162.21070222 294.16106666-2.08668445 13.34954667 6.91313778 25.88558222 20.09884444 28.00071111 1.27886222 0.2048 2.55203555 0.30378667 3.80700445 0.30378667 11.68725333 0 21.96593778-8.59818667 23.84782222-20.65408zM969.98968889 567.11509333c-13.19025778-2.11399111-25.57269333 6.99847111-27.65937778 20.35029334-33.64750222 215.28689778-214.60992 371.54702222-430.28935111 371.54702222-178.11683555 0-335.93571555-107.38346667-403.29102222-273.93365334-1.02855111-12.55424-11.40394667-22.42218667-24.06968889-22.42218666-13.35182222 0-24.17777778 10.9568-24.17777778 24.4736v243.93955556c0 13.51793778 10.82595555 24.4736 24.17777778 24.4736 13.35068445 0 24.17664-10.95566222 24.17664-24.4736V789.25824c33.86026667 51.5584 77.25056 96.36522667 128.41528889 132.14378667 80.98247111 56.6272 175.99260445 86.55872 274.76878222 86.55872 115.95093333 0 228.11648-42.15239111 315.83573333-118.68387556 86.78968889-75.7248 144.39765333-180.19328 162.21184-294.16334222 2.08668445-13.35182222-6.91313778-25.88444445-20.09884444-27.99843556z" fill="#2c2c2c" p-id="2724"></path></svg>